<svg xmlns="http://www.w3.org/2000/svg" width="32" height="32" viewBox="0 0 32 32" fill="none">
  <!-- Tesoura aberta (default cursor) -->
  <!-- Parafuso central -->
  <circle cx="16" cy="16" r="2.2" fill="#C9A84C"/>
  <!-- Lâmina superior (aberta) -->
  <path d="M16 16 L4 6 Q3 4 5 4 Q6 4 7 5 L16 14.5" stroke="#C9A84C" stroke-width="2" stroke-linecap="round" fill="none"/>
  <path d="M7 5 Q9 8 16 14.5" stroke="#E8C96A" stroke-width="1" stroke-linecap="round" fill="none" opacity="0.5"/>
  <!-- Lâmina inferior (aberta) -->
  <path d="M16 16 L4 26 Q3 28 5 28 Q6 28 7 27 L16 17.5" stroke="#C9A84C" stroke-width="2" stroke-linecap="round" fill="none"/>
  <path d="M7 27 Q9 24 16 17.5" stroke="#E8C96A" stroke-width="1" stroke-linecap="round" fill="none" opacity="0.5"/>
  <!-- Alça superior -->
  <ellipse cx="6" cy="5.5" rx="2.5" ry="2" stroke="#C9A84C" stroke-width="1.5" fill="none" transform="rotate(-15 6 5.5)"/>
  <!-- Alça inferior -->
  <ellipse cx="6" cy="26.5" rx="2.5" ry="2" stroke="#C9A84C" stroke-width="1.5" fill="none" transform="rotate(15 6 26.5)"/>
  <!-- Ponta de corte -->
  <circle cx="16" cy="16" r="1" fill="#F5D680"/>
</svg>
